# xmcd
#
# Track frame offsets: 
#        150
#        15802
#        36383
#        52514
#        68685
#        88505
#        106020
#        125268
#        141495
#        155969
#        177316
#
# Disc length: 2595 seconds
#
# Revision: 1
# Processed by: cddbd v1.5.2PL0 Copyright (c) Steve Scherf et al.
# Submitted via: ExactAudioCopy v0.99pb4
#
DISCID=850a210b
DTITLE=Susanne Orus - Susan Orus
DYEAR=2000
DGENRE=Country
TTITLE0=I got a heart (Dance Mix)
TTITLE1=Stand alone
TTITLE2=Where somebody loves me
TTITLE3=Free
TTITLE4=Pinche me
TTITLE5=She's gone
TTITLE6=C'mon
TTITLE7=Maybe next time
TTITLE8=Here and there
TTITLE9=Asking too much
TTITLE10=I got a heart (original USA version)
EXTD=2000 and 2002 by Blue Martin Records
EXTT0=
EXTT1=
EXTT2=
EXTT3=
EXTT4=
EXTT5=
EXTT6=
EXTT7=
EXTT8=
EXTT9=
EXTT10=
PLAYORDER=
